<svg xmlns="http://www.w3.org/2000/svg" viewBox="0 0 512 448.12"><defs><style>.cls-1{fill:#ff0b0b;}</style></defs><g id="Layer_2" data-name="Layer 2"><g id="Layer_1-2" data-name="Layer 1"><path class="cls-1" d="M458.4,32.32C400.6-16.28,311.3-9,256,47.32,200.7-9,111.4-16.38,53.6,32.32c-75.2,63.3-64.2,166.5-10.6,221.2l175.4,178.7a52.52,52.52,0,0,0,75.2.1L469,253.62C522.5,198.92,533.7,95.72,458.4,32.32Zm-23.6,187.5L259.4,398.52c-2.4,2.4-4.4,2.4-6.8,0L77.2,219.82c-36.5-37.2-43.9-107.6,7.3-150.7,38.9-32.7,98.9-27.8,136.5,10.5l35,35.7,35-35.7c37.8-38.5,97.8-43.2,136.5-10.6,51.1,43.1,43.5,113.9,7.3,150.8Z"/><path class="cls-1" d="M255.93,73.09l-92.66-46-90,16.66L32.6,118.42,48,223.84s98,103.91,99.31,105.91,88,91.34,88,91.34h46.66L380.6,312.42l108-134-7.33-73.33-64-74.67L348.6,27.09Z"/></g></g></svg>