<svg xmlns="http://www.w3.org/2000/svg" viewBox="0 0 121.63 20.88"><defs><style>.cls-1{fill:#fff;}</style></defs><g id="Layer_2" data-name="Layer 2"><g id="Layer_1-2" data-name="Layer 1"><path class="cls-1" d="M3.08,7.47A8.5,8.5,0,0,1,6,1.09a9.07,9.07,0,1,0,11,13A8.53,8.53,0,0,1,3.08,7.47Z"/><path class="cls-1" d="M10.7,13.8,10.3,0c13.23,1.48,14.2,18.94.4,20.88,13.69-3.77,10.66-18.26.51-20Z"/><path class="cls-1" d="M27.7,6.14v8.72H26.64V6.14Z"/><path class="cls-1" d="M30.68,10.93v3.93h-1V8.32h1v1h.08a1.93,1.93,0,0,1,.7-.8,2.13,2.13,0,0,1,1.21-.31,2.46,2.46,0,0,1,1.17.27,1.86,1.86,0,0,1,.77.82,3,3,0,0,1,.28,1.38v4.16h-1V10.77a1.69,1.69,0,0,0-.4-1.2,1.42,1.42,0,0,0-1.1-.43,1.77,1.77,0,0,0-.86.21,1.42,1.42,0,0,0-.59.6A2,2,0,0,0,30.68,10.93Z"/><path class="cls-1" d="M41.61,8.32a1.36,1.36,0,0,0-.62-1A2.39,2.39,0,0,0,39.65,7a2.56,2.56,0,0,0-1,.19,1.65,1.65,0,0,0-.68.52,1.23,1.23,0,0,0-.24.74,1,1,0,0,0,.17.6,1.44,1.44,0,0,0,.43.42,2.37,2.37,0,0,0,.56.26,5.31,5.31,0,0,0,.53.17l.89.24a7.39,7.39,0,0,1,.76.25,3.26,3.26,0,0,1,.8.43,2.23,2.23,0,0,1,.64.69,2,2,0,0,1,.25,1,2.25,2.25,0,0,1-.37,1.27,2.48,2.48,0,0,1-1.07.91A3.86,3.86,0,0,1,39.6,15a4,4,0,0,1-1.62-.3,2.65,2.65,0,0,1-1.08-.85,2.45,2.45,0,0,1-.44-1.26h1.09a1.33,1.33,0,0,0,.34.82,1.83,1.83,0,0,0,.74.48,3,3,0,0,0,1,.15,2.67,2.67,0,0,0,1.08-.2,1.84,1.84,0,0,0,.77-.55,1.34,1.34,0,0,0,.28-.83,1,1,0,0,0-.24-.71,1.87,1.87,0,0,0-.64-.44A5.44,5.44,0,0,0,40,11l-1.07-.31a3.76,3.76,0,0,1-1.62-.84,1.84,1.84,0,0,1-.6-1.43,2.12,2.12,0,0,1,.4-1.28,2.68,2.68,0,0,1,1.07-.85A3.7,3.7,0,0,1,39.68,6a3.52,3.52,0,0,1,1.5.3,2.53,2.53,0,0,1,1,.82,2,2,0,0,1,.41,1.18Z"/><path class="cls-1" d="M47,15a2.76,2.76,0,0,1-2.59-1.6A4,4,0,0,1,44,11.63a4,4,0,0,1,.38-1.79,2.79,2.79,0,0,1,1-1.18,3,3,0,0,1,3.1,0,2.72,2.72,0,0,1,1,1.18A4,4,0,0,1,50,11.63a4,4,0,0,1-.38,1.77,2.78,2.78,0,0,1-1,1.18A2.83,2.83,0,0,1,47,15Zm0-.9a1.73,1.73,0,0,0,1.11-.35,2,2,0,0,0,.64-.91A3.42,3.42,0,0,0,49,11.63a3.53,3.53,0,0,0-.21-1.23,2,2,0,0,0-.64-.91,1.94,1.94,0,0,0-2.22,0,2,2,0,0,0-.64.91,3.53,3.53,0,0,0-.21,1.23,3.42,3.42,0,0,0,.21,1.21,2,2,0,0,0,.64.91A1.73,1.73,0,0,0,47,14.1Z"/><path class="cls-1" d="M51.51,14.86V8.32h1v1h.09a1.56,1.56,0,0,1,.66-.81,1.94,1.94,0,0,1,1.09-.3,1.81,1.81,0,0,1,1.08.3,1.88,1.88,0,0,1,.68.81h.07a2,2,0,0,1,.75-.81,2.34,2.34,0,0,1,1.21-.3,2,2,0,0,1,1.43.55,2.26,2.26,0,0,1,.56,1.7v4.38h-1V10.48a1.25,1.25,0,0,0-.4-1,1.45,1.45,0,0,0-.93-.31,1.39,1.39,0,0,0-1.07.41,1.48,1.48,0,0,0-.38,1v4.26h-1V10.38a1.19,1.19,0,0,0-.36-.9A1.29,1.29,0,0,0,54,9.14a1.37,1.37,0,0,0-.73.21,1.51,1.51,0,0,0-.55.57,1.81,1.81,0,0,0-.2.85v4.09Z"/><path class="cls-1" d="M63,10.93v3.93h-1V8.32h1v1H63a1.87,1.87,0,0,1,.7-.8,2.11,2.11,0,0,1,1.21-.31,2.39,2.39,0,0,1,1.16.27,1.93,1.93,0,0,1,.78.82,3.14,3.14,0,0,1,.27,1.38v4.16h-1V10.77a1.69,1.69,0,0,0-.4-1.2,1.43,1.43,0,0,0-1.1-.43,1.74,1.74,0,0,0-.86.21,1.42,1.42,0,0,0-.59.6A2,2,0,0,0,63,10.93Z"/><path class="cls-1" d="M69.48,7.23A.73.73,0,0,1,69,7a.67.67,0,0,1,0-1,.74.74,0,0,1,1,0,.67.67,0,0,1,0,1A.72.72,0,0,1,69.48,7.23ZM69,14.86V8.32h1v6.54Z"/><path class="cls-1" d="M73.74,15a2.6,2.6,0,0,1-1.13-.24A1.81,1.81,0,0,1,71.51,13a1.69,1.69,0,0,1,.22-.92,1.49,1.49,0,0,1,.59-.55,3.47,3.47,0,0,1,.82-.3,9.1,9.1,0,0,1,.91-.16L75,11a1.27,1.27,0,0,0,.54-.14.34.34,0,0,0,.17-.34v0a1.33,1.33,0,0,0-.34-1,1.4,1.4,0,0,0-1-.35,1.89,1.89,0,0,0-1.13.31,2,2,0,0,0-.57.68l-1-.34a2.23,2.23,0,0,1,.69-.93,2.45,2.45,0,0,1,.94-.47,3.83,3.83,0,0,1,1-.14,4.05,4.05,0,0,1,.72.08,2.44,2.44,0,0,1,.8.3,1.82,1.82,0,0,1,.64.7,2.57,2.57,0,0,1,.26,1.24v4.31h-1V14h0a1.77,1.77,0,0,1-.34.45,2,2,0,0,1-.63.42A2.55,2.55,0,0,1,73.74,15Zm.15-.91a2,2,0,0,0,1-.23,1.65,1.65,0,0,0,.62-.61,1.51,1.51,0,0,0,.21-.77v-.93a.48.48,0,0,1-.28.14,4,4,0,0,1-.49.11l-.54.08L74,12a4,4,0,0,0-.74.16,1.35,1.35,0,0,0-.54.34.85.85,0,0,0-.21.61.9.9,0,0,0,.39.79A1.7,1.7,0,0,0,73.89,14.11Z"/><path class="cls-1" d="M83.22,9.78l-.91.26a1.5,1.5,0,0,0-.25-.44,1.33,1.33,0,0,0-.44-.36,1.92,1.92,0,0,0-1.72.14.8.8,0,0,0-.4.69.74.74,0,0,0,.27.6,2.45,2.45,0,0,0,.85.36l1,.24a2.73,2.73,0,0,1,1.31.65A1.54,1.54,0,0,1,83.33,13a1.64,1.64,0,0,1-.32,1,2.26,2.26,0,0,1-.89.7,3.3,3.3,0,0,1-1.34.25,3,3,0,0,1-1.66-.43,2,2,0,0,1-.83-1.27l.95-.24a1.35,1.35,0,0,0,.52.79,1.71,1.71,0,0,0,1,.26,1.88,1.88,0,0,0,1.12-.3.87.87,0,0,0,.42-.72.75.75,0,0,0-.24-.57,1.55,1.55,0,0,0-.74-.35l-1.09-.25a2.64,2.64,0,0,1-1.32-.67,1.57,1.57,0,0,1-.42-1.12,1.6,1.6,0,0,1,.32-1,2,2,0,0,1,.85-.67,2.92,2.92,0,0,1,1.24-.25,2.5,2.5,0,0,1,1.53.43A2.33,2.33,0,0,1,83.22,9.78Z"/><path class="cls-1" d="M87.78,14.86H84.69V6.14h3.12a4.64,4.64,0,0,1,2.27.52,3.58,3.58,0,0,1,1.46,1.5,5,5,0,0,1,.51,2.33,5.06,5.06,0,0,1-.51,2.35,3.55,3.55,0,0,1-1.47,1.5A4.7,4.7,0,0,1,87.78,14.86Zm-1.24-1.58h1.17A2.93,2.93,0,0,0,89.09,13a1.87,1.87,0,0,0,.84-.91,3.81,3.81,0,0,0,.28-1.59,3.79,3.79,0,0,0-.28-1.58,1.85,1.85,0,0,0-.84-.9,2.88,2.88,0,0,0-1.38-.29H86.54Z"/><path class="cls-1" d="M93.38,14.86V8.32h1.76V9.46h.07a1.69,1.69,0,0,1,.6-.92,1.58,1.58,0,0,1,1-.31h.3l.28,0V9.9A2.08,2.08,0,0,0,97,9.83l-.41,0a1.53,1.53,0,0,0-.72.17,1.41,1.41,0,0,0-.49.48,1.39,1.39,0,0,0-.18.71v3.7Z"/><path class="cls-1" d="M101,15a3.49,3.49,0,0,1-1.73-.41,2.7,2.7,0,0,1-1.12-1.17,3.84,3.84,0,0,1-.39-1.79,3.85,3.85,0,0,1,.39-1.77,2.88,2.88,0,0,1,1.1-1.19,3.28,3.28,0,0,1,1.68-.43,3.42,3.42,0,0,1,1.21.21,2.68,2.68,0,0,1,1.63,1.66,4,4,0,0,1,.24,1.46v.5H98.44V10.93h3.82a1.41,1.41,0,0,0-.17-.69,1.21,1.21,0,0,0-.47-.48,1.42,1.42,0,0,0-.7-.17,1.37,1.37,0,0,0-.73.19,1.29,1.29,0,0,0-.5.51,1.49,1.49,0,0,0-.18.7v1.07a1.86,1.86,0,0,0,.18.84,1.26,1.26,0,0,0,.52.55,1.61,1.61,0,0,0,.78.19,1.64,1.64,0,0,0,.56-.09,1.09,1.09,0,0,0,.43-.25,1.17,1.17,0,0,0,.27-.42l1.68.11a2.36,2.36,0,0,1-.52,1,2.51,2.51,0,0,1-1,.7A3.73,3.73,0,0,1,101,15Z"/><path class="cls-1" d="M107,15a2.83,2.83,0,0,1-1.12-.22,1.88,1.88,0,0,1-.77-.65,1.93,1.93,0,0,1-.28-1.08,1.84,1.84,0,0,1,.2-.92,1.56,1.56,0,0,1,.54-.6,2.7,2.7,0,0,1,.79-.34,6.53,6.53,0,0,1,.92-.16l.93-.11a1.32,1.32,0,0,0,.5-.16.35.35,0,0,0,.16-.32v0a.79.79,0,0,0-.25-.63,1.05,1.05,0,0,0-.72-.22,1.29,1.29,0,0,0-.78.21,1.06,1.06,0,0,0-.38.54l-1.68-.13a2.25,2.25,0,0,1,.5-1,2.44,2.44,0,0,1,1-.67,3.66,3.66,0,0,1,1.38-.24,4.42,4.42,0,0,1,1,.13,2.78,2.78,0,0,1,.89.4,2,2,0,0,1,.62.69,2.08,2.08,0,0,1,.23,1v4.41H109V14h0a1.79,1.79,0,0,1-.42.54,2.16,2.16,0,0,1-.63.36A2.83,2.83,0,0,1,107,15Zm.52-1.26a1.61,1.61,0,0,0,.71-.15,1.36,1.36,0,0,0,.48-.44,1.18,1.18,0,0,0,.17-.62v-.69a.71.71,0,0,1-.23.1l-.33.08-.37.07-.33,0a2.67,2.67,0,0,0-.56.15.89.89,0,0,0-.37.28.67.67,0,0,0-.13.43.65.65,0,0,0,.27.56A1.15,1.15,0,0,0,107.54,13.73Z"/><path class="cls-1" d="M112.12,14.86V8.32h1.73V9.47h.07a1.87,1.87,0,0,1,.68-.9,2.1,2.1,0,0,1,2.29,0,1.53,1.53,0,0,1,.63.9h.07a1.83,1.83,0,0,1,.73-.9,2.28,2.28,0,0,1,1.24-.34,2,2,0,0,1,1.49.59,2.19,2.19,0,0,1,.58,1.64v4.4h-1.81v-4a1.09,1.09,0,0,0-.29-.82,1,1,0,0,0-.73-.27A1,1,0,0,0,118,10a1.24,1.24,0,0,0-.28.83v4H116V10.78a1.08,1.08,0,0,0-.27-.77,1,1,0,0,0-.72-.28,1,1,0,0,0-.55.15,1.11,1.11,0,0,0-.38.42,1.39,1.39,0,0,0-.14.63v3.93Z"/></g></g></svg>